<svg xmlns="http://www.w3.org/2000/svg" width="32" height="32" viewBox="0 0 32 32" shape-rendering="crispEdges"><title>appear-4</title><g fill="#000000"><rect x="4" y="12" width="2" height="2"/><rect x="6" y="12" width="2" height="2"/><rect x="8" y="12" width="2" height="2"/><rect x="22" y="12" width="2" height="2"/><rect x="24" y="12" width="2" height="2"/><rect x="26" y="12" width="2" height="2"/><rect x="4" y="14" width="2" height="2"/><rect x="10" y="14" width="2" height="2"/><rect x="20" y="14" width="2" height="2"/><rect x="26" y="14" width="2" height="2"/><rect x="4" y="16" width="2" height="2"/><rect x="12" y="16" width="2" height="2"/><rect x="14" y="16" width="2" height="2"/><rect x="16" y="16" width="2" height="2"/><rect x="18" y="16" width="2" height="2"/><rect x="26" y="16" width="2" height="2"/><rect x="2" y="18" width="2" height="2"/><rect x="28" y="18" width="2" height="2"/><rect x="2" y="20" width="2" height="2"/><rect x="10" y="20" width="2" height="2"/><rect x="20" y="20" width="2" height="2"/><rect x="28" y="20" width="2" height="2"/><rect x="0" y="22" width="2" height="2"/><rect x="10" y="22" width="2" height="2"/><rect x="20" y="22" width="2" height="2"/><rect x="30" y="22" width="2" height="2"/><rect x="0" y="24" width="2" height="2"/><rect x="2" y="24" width="2" height="2"/><rect x="14" y="24" width="2" height="2"/><rect x="16" y="24" width="2" height="2"/><rect x="28" y="24" width="2" height="2"/><rect x="30" y="24" width="2" height="2"/><rect x="2" y="26" width="2" height="2"/><rect x="4" y="26" width="2" height="2"/><rect x="6" y="26" width="2" height="2"/><rect x="24" y="26" width="2" height="2"/><rect x="26" y="26" width="2" height="2"/><rect x="28" y="26" width="2" height="2"/><rect x="0" y="28" width="2" height="2"/><rect x="2" y="28" width="2" height="2"/><rect x="4" y="28" width="2" height="2"/><rect x="6" y="28" width="2" height="2"/><rect x="24" y="28" width="2" height="2"/><rect x="2" y="30" width="2" height="2"/><rect x="4" y="30" width="2" height="2"/><rect x="6" y="30" width="2" height="2"/><rect x="10" y="30" width="2" height="2"/><rect x="12" y="30" width="2" height="2"/><rect x="14" y="30" width="2" height="2"/><rect x="16" y="30" width="2" height="2"/><rect x="18" y="30" width="2" height="2"/><rect x="20" y="30" width="2" height="2"/><rect x="24" y="30" width="2" height="2"/></g></svg>
